HIERARCHY
ROOT Hips
{
	OFFSET	0.000000	0.000000	0.000000
	CHANNELS 6 Xposition Yposition Zposition Zrotation Xrotation Yrotation
	JOINT LeftUpLeg
	{
		OFFSET	12.811937	-7.635976	0.557276
		CHANNELS 3 Zrotation Xrotation Yrotation
		JOINT LeftLeg
		{
			OFFSET	-0.429270	-42.206159	-1.204951
			CHANNELS 3 Zrotation Xrotation Yrotation
			JOINT LeftFoot
			{
				OFFSET	-2.112259	-42.464481	-3.973220
				CHANNELS 3 Zrotation Xrotation Yrotation
				JOINT LeftFootHeel
				{
					OFFSET	0.387196	-5.329707	-3.419729
					CHANNELS 3 Zrotation Xrotation Yrotation
					End Site
					{
						OFFSET	0.327567	-0.000003	16.505428
					}
				}
			}
		}
	}
	JOINT RightUpLeg
	{
		OFFSET	-12.811937	-7.635976	0.557276
		CHANNELS 3 Zrotation Xrotation Yrotation
		JOINT RightLeg
		{
			OFFSET	0.429270	-42.206159	-1.204951
			CHANNELS 3 Zrotation Xrotation Yrotation
			JOINT RightFoot
			{
				OFFSET	2.112259	-42.464481	-3.973220
				CHANNELS 3 Zrotation Xrotation Yrotation
				JOINT RightFootHeel
				{
					OFFSET	-0.387198	-5.329707	-3.419729
					CHANNELS 3 Zrotation Xrotation Yrotation
					End Site
					{
						OFFSET	-0.327566	-0.000003	16.505428
					}
				}
			}
		}
	}
	JOINT Spine
	{
		OFFSET	0.000000	13.731315	-1.007646
		CHANNELS 3 Zrotation Xrotation Yrotation
		JOINT Spine1
		{
			OFFSET	0.000000	12.091746	-0.604589
			CHANNELS 3 Zrotation Xrotation Yrotation
			JOINT LeftShoulder
			{
				OFFSET	5.746115	20.990027	-0.833816
				CHANNELS 3 Zrotation Xrotation Yrotation
				JOINT LeftArm
				{
					OFFSET	10.881538	-1.359258	0.219250
					CHANNELS 3 Zrotation Xrotation Yrotation
					JOINT LeftForeArm
					{
						OFFSET	4.390314	-31.537147	0.202818
						CHANNELS 3 Zrotation Xrotation Yrotation
						JOINT LeftHand
						{
							OFFSET	3.168650	-24.865023	5.373370
							CHANNELS 3 Zrotation Xrotation Yrotation
							End Site
							{
								OFFSET	1.457528	-10.806075	2.170267
							}
						}
					}
				}
			}
			JOINT RightShoulder
			{
				OFFSET	-5.746115	20.990027	-0.833816
				CHANNELS 3 Zrotation Xrotation Yrotation
				JOINT RightArm
				{
					OFFSET	-10.881538	-1.359258	0.219250
					CHANNELS 3 Zrotation Xrotation Yrotation
					JOINT RightForeArm
					{
						OFFSET	-4.390314	-31.537147	0.202818
						CHANNELS 3 Zrotation Xrotation Yrotation
						JOINT RightHand
						{
							OFFSET	-3.168650	-24.865023	5.373370
							CHANNELS 3 Zrotation Xrotation Yrotation
							End Site
							{
								OFFSET	-1.457528	-10.806075	2.170267
							}
						}
					}
				}
			}
			JOINT Neck
			{
				OFFSET	0.000000	27.075639	0.680489
				CHANNELS 3 Zrotation Xrotation Yrotation
				JOINT Head
				{
					OFFSET	0.000000	12.391287	1.239129
					CHANNELS 3 Zrotation Xrotation Yrotation
					End Site
					{
						OFFSET	0.000000	13.818691	-0.105853
					}
				}
			}
		}
	}
}
MOTION
Frames:     16
Frame Time: 0.016667
0.000000	100.515133	0.000000	0.106481	-0.915399	0.559637	0.478289	1.561075	-2.777307	0.163333	-1.126517	4.709524	-0.632465	0.386799	-1.244856	0.	0.	0.	0.583508	1.294323	-2.749376	-0.146432	-1.227580	2.713140	-0.049901	2.329781	1.670731	0.	0.	0.	-0.677735	3.144815	-1.288082	-0.512567	0.902370	1.527255	2.348543	-4.673552	-3.440026	-1.469418	-0.616744	-2.251021	-1.139191	0.671932	-0.383398	4.036920	-0.552457	-6.629579	1.661425	-0.285916	-1.678510	0.485412	-4.673129	6.443974	-2.755552	5.257695	1.958380	0.939229	-1.356162	5.684832	0.747584	-2.706887	2.029118	0.987609	-1.147690	-6.874138	
0.007836	100.514755	0.014828	0.106481	-0.915399	0.559637	0.470606	1.586532	-2.793605	0.172571	-1.151521	4.726112	-0.632465	0.386799	-1.244856	0.	0.	0.	0.573091	1.313419	-2.747311	-0.136192	-1.244555	2.700613	-0.049372	2.328129	1.681370	0.	0.	0.	-0.677182	3.141523	-1.287839	-0.513769	0.896753	1.526150	2.342695	-4.673440	-3.450335	-1.457607	-0.626670	-2.253730	-1.132039	0.691243	-0.400065	4.010950	-0.560932	-6.578803	1.660944	-0.283121	-1.682306	0.487069	-4.675327	6.442060	-2.751072	5.258627	1.956408	0.935353	-1.348787	5.693003	0.753520	-2.706565	2.025730	0.982923	-1.138874	-6.869902	
0.016913	100.514290	0.032379	0.106481	-0.915399	0.559637	0.462480	1.611567	-2.809758	0.182242	-1.176079	4.742568	-0.632465	0.386799	-1.244855	0.	0.	0.	0.561000	1.335584	-2.744885	-0.124703	-1.263615	2.681842	-0.048566	2.325549	1.697924	0.	0.	0.	-0.674753	3.127080	-1.286825	-0.517667	0.893336	1.523420	2.341135	-4.659916	-3.454606	-1.449130	-0.641008	-2.251541	-1.133128	0.710011	-0.408077	3.943218	-0.603820	-6.463108	1.660033	-0.277297	-1.689747	0.490499	-4.680064	6.437172	-2.741466	5.263289	1.945735	0.923479	-1.337187	5.716176	0.765765	-2.706486	2.018627	0.973204	-1.120646	-6.861117	
0.028508	100.513689	0.054530	0.106481	-0.915399	0.559637	0.453972	1.635827	-2.825455	0.192260	-1.199839	4.758587	-0.632465	0.386799	-1.244856	0.	0.	0.	0.545576	1.363870	-2.741768	-0.109766	-1.288404	2.660939	-0.047671	2.322734	1.715988	0.	0.	0.	-0.671896	3.110085	-1.285602	-0.522031	0.892706	1.520506	2.333446	-4.654634	-3.468733	-1.434847	-0.647662	-2.236416	-1.131984	0.729438	-0.424609	3.859454	-0.655409	-6.318671	1.659179	-0.271340	-1.696927	0.494173	-4.685055	6.430408	-2.737315	5.278190	1.943488	0.906646	-1.338826	5.727227	0.778468	-2.707461	2.011117	0.963033	-1.101583	-6.851933	
0.044546	100.512836	0.085424	0.106481	-0.915399	0.559637	0.441028	1.670894	-2.846913	0.202198	-1.219037	4.780054	-0.628558	0.371307	-1.244648	0.	0.	0.	0.524228	1.403019	-2.737457	-0.089379	-1.322265	2.629060	-0.046288	2.318375	1.743959	0.	0.	0.	-0.666933	3.080582	-1.283525	-0.529324	0.895864	1.515913	2.331666	-4.634007	-3.474187	-1.422300	-0.671475	-2.228964	-1.138560	0.758843	-0.431545	3.780149	-0.698733	-6.178069	1.658083	-0.261555	-1.707021	0.500050	-4.693460	6.416609	-2.729251	5.299761	1.932385	0.883089	-1.343733	5.737669	0.798020	-2.709863	1.999412	0.947292	-1.072137	-6.837722	
0.049141	100.512565	0.094400	0.106481	-0.915399	0.559637	0.436648	1.682229	-2.853617	0.205185	-1.224016	4.786733	-0.626979	0.365053	-1.244569	0.	0.	0.	0.518109	1.414236	-2.736214	-0.083691	-1.331728	2.618333	-0.045812	2.316877	1.753562	0.	0.	0.	-0.665090	3.069621	-1.282732	-0.531965	0.898056	1.514291	2.332503	-4.625265	-3.473700	-1.419388	-0.681551	-2.228729	-1.141861	0.768800	-0.431546	3.772865	-0.702230	-6.164953	1.657760	-0.258074	-1.710221	0.502024	-4.696703	6.411384	-2.726393	5.296338	1.943147	0.875243	-1.334699	5.727226	0.804743	-2.711009	1.995326	0.941172	-1.062556	-6.829553	
0.051259	100.512303	0.100331	0.106481	-0.915399	0.559637	0.428511	1.705390	-2.857172	0.211447	-1.237711	4.790338	-0.624646	0.355806	-1.244461	0.	0.	0.	0.515245	1.419485	-2.735635	-0.083187	-1.332817	2.591146	-0.044480	2.312727	1.780192	0.	0.	0.	-0.659664	3.037384	-1.280450	-0.539752	0.904510	1.509552	2.338293	-4.613627	-3.462220	-1.414591	-0.698848	-2.237373	-1.146890	0.790859	-0.429567	3.765001	-0.694692	-6.163099	1.661859	-0.245964	-1.706650	0.501188	-4.708725	6.385712	-2.716072	5.283275	1.972479	0.865042	-1.314913	5.721179	0.827259	-2.717231	1.985180	0.907318	-1.034392	-6.793645	
0.051259	100.512303	0.100331	0.106481	-0.915399	0.559637	0.415296	1.740873	-2.857551	0.223315	-1.263431	4.790938	-0.622302	0.346518	-1.244324	0.	0.	0.	0.515245	1.419485	-2.735635	-0.083187	-1.332817	2.591146	-0.044480	2.312727	1.780192	0.	0.	0.	-0.659664	3.037384	-1.280450	-0.539752	0.904510	1.509552	2.338293	-4.613627	-3.462220	-1.414591	-0.698848	-2.237373	-1.146890	0.790859	-0.429567	3.765001	-0.694692	-6.163099	1.661859	-0.245964	-1.706650	0.501188	-4.708725	6.385712	-2.707812	5.255816	1.975542	0.857673	-1.287246	5.716937	0.827259	-2.717231	1.985180	0.907318	-1.034392	-6.793645	
0.051240	100.512216	0.101422	0.106481	-0.915399	0.559637	0.405411	1.765602	-2.857720	0.230163	-1.275216	4.791104	-0.619090	0.333785	-1.244153	0.	0.	0.	0.515245	1.419485	-2.735635	-0.084555	-1.330711	2.577134	-0.043773	2.310550	1.794183	0.	0.	0.	-0.658637	3.031277	-1.280013	-0.542908	0.880723	1.509549	2.347426	-4.611320	-3.444247	-1.410844	-0.713591	-2.239425	-1.148147	0.808889	-0.435609	3.775633	-0.673608	-6.155873	1.674699	-0.234012	-1.685983	0.487508	-4.716671	6.353449	-2.694911	5.247516	1.990461	0.853431	-1.289269	5.720135	0.885402	-2.778224	1.947127	0.840611	-0.977819	-6.706624	
0.055938	100.511228	0.120377	0.106481	-0.915399	0.559637	0.394745	1.790693	-2.857800	0.237709	-1.287043	4.791214	-0.615803	0.320762	-1.243997	0.	0.	0.	0.507153	1.434327	-2.733986	-0.074166	-1.334279	2.577262	-0.045831	2.299767	1.792615	0.	0.	0.	-0.653880	3.002990	-1.277995	-0.548776	0.904109	1.522253	2.350392	-4.622026	-3.448555	-1.410111	-0.717391	-2.229362	-1.157132	0.813377	-0.427050	3.790557	-0.678615	-6.120041	1.681001	-0.239779	-1.688360	0.480468	-4.706821	6.340895	-2.683567	5.209826	1.994673	0.847995	-1.286940	5.721414	0.905838	-2.788440	1.961610	0.815345	-0.989289	-6.714958	
0.058755	100.509658	0.146991	0.106481	-0.915399	0.559637	0.383563	1.814920	-2.857724	0.245600	-1.297621	4.791146	-0.612426	0.307370	-1.243792	0.	0.	0.	0.500847	1.453070	-2.721867	-0.064668	-1.335505	2.567780	-0.049089	2.282721	1.790157	0.	0.	0.	-0.653769	2.971481	-1.256129	-0.549614	0.933928	1.518841	2.353080	-4.636736	-3.455532	-1.413934	-0.705559	-2.214897	-1.166647	0.817264	-0.432597	3.774001	-0.700139	-6.071950	1.687598	-0.249505	-1.692942	0.471235	-4.705468	6.328612	-2.669658	5.181733	1.997706	0.839464	-1.260833	5.718363	0.926387	-2.795646	1.988346	0.780581	-1.041687	-6.708199	
0.058755	100.509658	0.146991	0.106481	-0.915399	0.559637	0.371821	1.837194	-2.857467	0.253824	-1.305851	4.790941	-0.608951	0.293597	-1.243626	0.	0.	0.	0.500847	1.453070	-2.721867	-0.064668	-1.335505	2.567780	-0.049089	2.282721	1.790157	0.	0.	0.	-0.653769	2.971481	-1.256129	-0.549614	0.933928	1.518841	2.354137	-4.652979	-3.442359	-1.416118	-0.689089	-2.227584	-1.166646	0.817265	-0.432596	3.774001	-0.700138	-6.071950	1.687598	-0.249505	-1.692942	0.471235	-4.705468	6.328612	-2.659492	5.147967	2.001490	0.830410	-1.226809	5.713164	0.926387	-2.795646	1.988346	0.773238	-1.072368	-6.679478	
0.058292	100.506945	0.188924	0.106481	-0.915399	0.559637	0.365800	1.847455	-2.857259	0.257972	-1.308889	4.790745	-0.607165	0.286512	-1.243530	0.	0.	0.	0.497118	1.478479	-2.693100	-0.055734	-1.329690	2.543614	-0.054967	2.251974	1.785693	0.	0.	0.	-0.659020	2.910803	-1.193213	-0.545581	0.990548	1.502716	2.347658	-4.657856	-3.479850	-1.413456	-0.680141	-2.191859	-1.185503	0.816024	-0.432564	3.768014	-0.714908	-6.070371	1.701894	-0.269924	-1.709721	0.450275	-4.709291	6.303246	-2.647122	5.158743	1.999970	0.861291	-1.268588	5.731793	0.947334	-2.837497	2.007658	0.748766	-1.029028	-6.730919	
0.054152	100.505036	0.215072	0.106481	-0.915399	0.559637	0.358443	1.854431	-2.856669	0.260663	-1.300957	4.789960	-0.603404	0.271609	-1.243340	0.	0.	0.	0.499610	1.490858	-2.668064	-0.054793	-1.319517	2.521811	-0.059266	2.229521	1.782429	0.	0.	0.	-0.658908	2.879412	-1.171238	-0.546645	1.018765	1.513503	2.341758	-4.663680	-3.503568	-1.410460	-0.671262	-2.168214	-1.195197	0.810048	-0.433905	3.772498	-0.714405	-6.091769	1.706041	-0.273794	-1.734563	0.444698	-4.710670	6.296626	-2.640387	5.150722	2.000781	0.889087	-1.277274	5.742946	0.937518	-2.855299	2.003073	0.755379	-1.011263	-6.747323	
0.047962	100.502943	0.244491	0.107789	-0.915248	0.562551	0.331254	1.866101	-2.856638	0.278975	-1.287731	4.787148	-0.597258	0.247254	-1.242996	0.	0.	0.	0.510731	1.493831	-2.634672	-0.070007	-1.287539	2.508904	-0.057724	2.193840	1.758618	0.	0.	0.	-0.654249	2.845096	-1.171693	-0.553783	1.049548	1.543056	2.326822	-4.686151	-3.507453	-1.399973	-0.644387	-2.144261	-1.222875	0.803242	-0.414580	3.750515	-0.749825	-6.053615	1.708455	-0.291538	-1.739043	0.435566	-4.713930	6.275540	-2.619849	5.130074	1.999604	0.886861	-1.261030	5.744260	0.927323	-2.874295	2.000738	0.761266	-0.993337	-6.760046	
0.047962	100.502943	0.244491	0.107789	-0.915248	0.562551	0.331254	1.866101	-2.856638	0.273294	-1.271188	4.786615	-0.592980	0.230292	-1.242765	0.	0.	0.	0.510731	1.493831	-2.634672	-0.070007	-1.287539	2.508904	-0.057724	2.193840	1.758618	0.	0.	0.	-0.654249	2.845096	-1.171693	-0.553783	1.049548	1.543056	2.326822	-4.686151	-3.507453	-1.399973	-0.644387	-2.144261	-1.222875	0.803242	-0.414580	3.750515	-0.749825	-6.053615	1.708455	-0.291538	-1.739043	0.435566	-4.713930	6.275540	-2.607276	5.088316	2.004320	0.875664	-1.218956	5.737775	0.927323	-2.874295	2.000738	0.761266	-0.993337	-6.760046	
